<mxfile host="app.diagrams.net" modified="2024-06-07T17:13:38.021Z" agent="Mozilla/5.0 (Windows NT 10.0; Win64; x64; rv:126.0) Gecko/20100101 Firefox/126.0" version="24.4.13" etag="2RBZ-MuPXh1jklwk0lR5" type="github">
  <diagram name="Seite-1" id="xANqkvu5awMMFPTITI8g">
    <mxGraphModel>
      <root>
        <mxCell id="0" />
        <mxCell id="1" parent="0" />
      </root>
    </mxGraphModel>
  </diagram>
</mxfile>
